<svg width="61" height="61" viewBox="0 0 61 61" fill="none" xmlns="http://www.w3.org/2000/svg">
<path d="M49.6819 34.7712V25.1866M55.2367 31.6564V28.2887C55.2367 27.6939 54.8745 27.1602 54.3217 26.9416L49.6819 25.1739V11.1909C49.6316 10.7848 49.4346 10.4111 49.128 10.1401C48.8214 9.86906 48.4263 9.71948 48.0171 9.71948C47.6079 9.71948 47.2128 9.86906 46.9062 10.1401C46.5995 10.4111 46.4026 10.7848 46.3523 11.1909V12.0551C39.3729 16.733 28.1997 21.1441 18.0305 21.1441H10.619C9.94491 21.1441 9.29843 21.4118 8.82177 21.8885C8.34512 22.3651 8.07733 23.0116 8.07733 23.6857V24.8168C7.43556 24.8235 6.82257 25.0841 6.37245 25.5416C5.92233 25.9991 5.67173 26.6162 5.67546 27.258V32.6603C5.69539 33.2986 5.96733 33.9029 6.43175 34.3411C6.89618 34.7794 7.51528 35.0158 8.15358 34.9987V36.1691C8.15358 36.8432 8.42137 37.4897 8.89802 37.9663C9.37467 38.443 10.0212 38.7108 10.6953 38.7108H13.4911L16.428 48.5508C16.4953 48.7912 16.6402 49.0026 16.8402 49.1521C17.0402 49.3015 17.284 49.3805 17.5336 49.3769H22.6843C22.7987 49.3896 22.913 49.3896 23.0274 49.3769C23.3272 49.2748 23.578 49.0645 23.7308 48.7871C23.8836 48.5097 23.9274 48.1852 23.8535 47.8773L22.2141 42.3848H23.002C23.1155 42.4042 23.2316 42.4042 23.3451 42.3848C23.6426 42.2802 23.8905 42.0689 24.0408 41.7917C24.1911 41.5146 24.233 41.1915 24.1585 40.8852L23.6628 39.3475C31.7417 40.5936 39.463 43.5442 46.3142 48.0031V48.791C46.3015 48.8986 46.3015 49.0045 46.3142 49.1087C46.3563 49.5488 46.5715 49.954 46.9124 50.2354C47.2534 50.5167 47.6921 50.6511 48.1321 50.609C48.5721 50.5668 48.9774 50.3516 49.2587 50.0107C49.5401 49.6698 49.6744 49.2311 49.6323 48.791V34.8106L54.2709 33.0416C54.5564 32.9407 54.8032 32.7527 54.9765 32.5043C55.1497 32.2558 55.2407 31.9593 55.2367 31.6564Z" stroke="black" stroke-width="2.5" stroke-linecap="round" stroke-linejoin="round"/>
<path d="M23.6616 39.3475C20.2888 38.9256 16.916 38.6448 13.5178 38.7121" stroke="black" stroke-width="2.5" stroke-linecap="round" stroke-linejoin="round"/>
</svg>
