<svg width="61" height="61" viewBox="0 0 61 61" fill="none" xmlns="http://www.w3.org/2000/svg">
<path d="M30.4998 39.3959C35.4129 39.3959 39.3957 35.4131 39.3957 30.5001C39.3957 25.587 35.4129 21.6042 30.4998 21.6042C25.5868 21.6042 21.604 25.587 21.604 30.5001C21.604 35.4131 25.5868 39.3959 30.4998 39.3959Z" stroke="black" stroke-width="2.54167"/>
<path d="M51.3111 27.7906C52.2972 28.9903 52.7903 29.5875 52.7903 30.5C52.7903 31.4125 52.2972 32.0098 51.3111 33.2094C47.7019 37.5913 39.7414 45.75 30.4999 45.75C21.2584 45.75 13.2979 37.5913 9.68872 33.2094C8.70256 32.0098 8.20947 31.4125 8.20947 30.5C8.20947 29.5875 8.70256 28.9903 9.68872 27.7906C13.2979 23.4088 21.2584 15.25 30.4999 15.25C39.7414 15.25 47.7019 23.4088 51.3111 27.7906Z" stroke="black" stroke-width="2.54167"/>
</svg>
