<svg width="40" height="40" viewBox="0 0 40 40" fill="none" xmlns="http://www.w3.org/2000/svg">
<path d="M9.16663 15.8333V10.8333C9.16663 10.3913 9.34222 9.96734 9.65478 9.65478C9.96734 9.34222 10.3913 9.16663 10.8333 9.16663H15.8333C16.2753 9.16663 16.6992 9.34222 17.0118 9.65478C17.3244 9.96734 17.5 10.3913 17.5 10.8333V15.8333C17.5 16.2753 17.3244 16.6992 17.0118 17.0118C16.6992 17.3244 16.2753 17.5 15.8333 17.5H10.8333C10.3913 17.5 9.96734 17.3244 9.65478 17.0118C9.34222 16.6992 9.16663 16.2753 9.16663 15.8333ZM22.5 15.8333V10.8333C22.5 10.3913 22.6756 9.96734 22.9881 9.65478C23.3007 9.34222 23.7246 9.16663 24.1666 9.16663H29.1666C29.6087 9.16663 30.0326 9.34222 30.3451 9.65478C30.6577 9.96734 30.8333 10.3913 30.8333 10.8333V15.8333C30.8333 16.2753 30.6577 16.6992 30.3451 17.0118C30.0326 17.3244 29.6087 17.5 29.1666 17.5H24.1666C23.7246 17.5 23.3007 17.3244 22.9881 17.0118C22.6756 16.6992 22.5 16.2753 22.5 15.8333ZM22.5 29.1666V24.1666C22.5 23.7246 22.6756 23.3007 22.9881 22.9881C23.3007 22.6756 23.7246 22.5 24.1666 22.5H29.1666C29.6087 22.5 30.0326 22.6756 30.3451 22.9881C30.6577 23.3007 30.8333 23.7246 30.8333 24.1666V29.1666C30.8333 29.6087 30.6577 30.0326 30.3451 30.3451C30.0326 30.6577 29.6087 30.8333 29.1666 30.8333H24.1666C23.7246 30.8333 23.3007 30.6577 22.9881 30.3451C22.6756 30.0326 22.5 29.6087 22.5 29.1666ZM9.16663 29.1666V24.1666C9.16663 23.7246 9.34222 23.3007 9.65478 22.9881C9.96734 22.6756 10.3913 22.5 10.8333 22.5H15.8333C16.2753 22.5 16.6992 22.6756 17.0118 22.9881C17.3244 23.3007 17.5 23.7246 17.5 24.1666V29.1666C17.5 29.6087 17.3244 30.0326 17.0118 30.3451C16.6992 30.6577 16.2753 30.8333 15.8333 30.8333H10.8333C10.3913 30.8333 9.96734 30.6577 9.65478 30.3451C9.34222 30.0326 9.16663 29.6087 9.16663 29.1666Z" stroke="white" stroke-width="2.54167" stroke-linecap="round" stroke-linejoin="round"/>
</svg>
