<svg width="40" height="40" viewBox="0 0 40 40" fill="none" xmlns="http://www.w3.org/2000/svg">
<path d="M32.5784 22.8009V16.5159M36.2209 20.7584V18.5501C36.2209 18.1601 35.9834 17.8101 35.6209 17.6667L32.5784 16.5076V7.33839C32.5454 7.07209 32.4162 6.82702 32.2152 6.64932C32.0141 6.47162 31.755 6.37354 31.4867 6.37354C31.2184 6.37354 30.9593 6.47162 30.7582 6.64932C30.5572 6.82702 30.428 7.07209 30.395 7.33839V7.90506C25.8184 10.9726 18.4917 13.8651 11.8234 13.8651H6.96336C6.52133 13.8651 6.09741 14.0407 5.78485 14.3532C5.47229 14.6658 5.2967 15.0897 5.2967 15.5317V16.2734C4.87586 16.2778 4.4739 16.4487 4.17874 16.7487C3.88358 17.0487 3.71925 17.4534 3.7217 17.8742V21.4167C3.73477 21.8352 3.91309 22.2315 4.21763 22.5189C4.52217 22.8062 4.92813 22.9613 5.3467 22.9501V23.7176C5.3467 24.1596 5.52229 24.5835 5.83485 24.8961C6.14741 25.2086 6.57134 25.3842 7.01336 25.3842H8.8467L10.7725 31.8367C10.8167 31.9944 10.9117 32.133 11.0428 32.231C11.174 32.3289 11.3338 32.3808 11.4975 32.3784H14.875C14.95 32.3867 15.025 32.3867 15.1 32.3784C15.2966 32.3114 15.4611 32.1735 15.5613 31.9916C15.6615 31.8097 15.6902 31.597 15.6417 31.3951L14.5667 27.7934H15.0834C15.1578 27.8061 15.2339 27.8061 15.3084 27.7934C15.5034 27.7248 15.666 27.5862 15.7645 27.4045C15.8631 27.2228 15.8906 27.0109 15.8417 26.8101L15.5167 25.8017C20.8143 26.6189 25.8775 28.5536 30.37 31.4776V31.9942C30.3617 32.0648 30.3617 32.1342 30.37 32.2026C30.3977 32.4911 30.5388 32.7568 30.7623 32.9413C30.9859 33.1258 31.2736 33.2139 31.5621 33.1863C31.8506 33.1587 32.1164 33.0176 32.3009 32.794C32.4854 32.5704 32.5735 32.2828 32.5459 31.9942V22.8267L35.5875 21.6667C35.7748 21.6005 35.9366 21.4773 36.0502 21.3144C36.1638 21.1514 36.2235 20.957 36.2209 20.7584Z" stroke="white" stroke-width="2.5" stroke-linecap="round" stroke-linejoin="round"/>
<path d="M15.5159 25.8016C13.3042 25.525 11.0925 25.3408 8.8642 25.385" stroke="white" stroke-width="2.5" stroke-linecap="round" stroke-linejoin="round"/>
</svg>
