<svg width="61" height="61" viewBox="0 0 61 61" fill="none" xmlns="http://www.w3.org/2000/svg">
<path d="M13.9792 24.1459V16.5209C13.9792 15.8468 14.247 15.2003 14.7237 14.7237C15.2003 14.247 15.8468 13.9792 16.5209 13.9792H24.1459C24.82 13.9792 25.4665 14.247 25.9431 14.7237C26.4198 15.2003 26.6876 15.8468 26.6876 16.5209V24.1459C26.6876 24.82 26.4198 25.4665 25.9431 25.9431C25.4665 26.4198 24.82 26.6876 24.1459 26.6876H16.5209C15.8468 26.6876 15.2003 26.4198 14.7237 25.9431C14.247 25.4665 13.9792 24.82 13.9792 24.1459ZM34.3126 24.1459V16.5209C34.3126 15.8468 34.5804 15.2003 35.057 14.7237C35.5337 14.247 36.1802 13.9792 36.8542 13.9792H44.4792C45.1533 13.9792 45.7998 14.247 46.2765 14.7237C46.7531 15.2003 47.0209 15.8468 47.0209 16.5209V24.1459C47.0209 24.82 46.7531 25.4665 46.2765 25.9431C45.7998 26.4198 45.1533 26.6876 44.4792 26.6876H36.8542C36.1802 26.6876 35.5337 26.4198 35.057 25.9431C34.5804 25.4665 34.3126 24.82 34.3126 24.1459ZM34.3126 44.4792V36.8542C34.3126 36.1802 34.5804 35.5337 35.057 35.057C35.5337 34.5804 36.1802 34.3126 36.8542 34.3126H44.4792C45.1533 34.3126 45.7998 34.5804 46.2765 35.057C46.7531 35.5337 47.0209 36.1802 47.0209 36.8542V44.4792C47.0209 45.1533 46.7531 45.7998 46.2765 46.2765C45.7998 46.7531 45.1533 47.0209 44.4792 47.0209H36.8542C36.1802 47.0209 35.5337 46.7531 35.057 46.2765C34.5804 45.7998 34.3126 45.1533 34.3126 44.4792ZM13.9792 44.4792V36.8542C13.9792 36.1802 14.247 35.5337 14.7237 35.057C15.2003 34.5804 15.8468 34.3126 16.5209 34.3126H24.1459C24.82 34.3126 25.4665 34.5804 25.9431 35.057C26.4198 35.5337 26.6876 36.1802 26.6876 36.8542V44.4792C26.6876 45.1533 26.4198 45.7998 25.9431 46.2765C25.4665 46.7531 24.82 47.0209 24.1459 47.0209H16.5209C15.8468 47.0209 15.2003 46.7531 14.7237 46.2765C14.247 45.7998 13.9792 45.1533 13.9792 44.4792Z" stroke="black" stroke-width="2.54167" stroke-linecap="round" stroke-linejoin="round"/>
</svg>
