<svg width="40" height="40" viewBox="0 0 40 40" fill="none" xmlns="http://www.w3.org/2000/svg">
<path d="M20 25.8333C23.2216 25.8333 25.8333 23.2216 25.8333 20C25.8333 16.7783 23.2216 14.1666 20 14.1666C16.7783 14.1666 14.1666 16.7783 14.1666 20C14.1666 23.2216 16.7783 25.8333 20 25.8333Z" stroke="white" stroke-width="2.54167"/>
<path d="M33.6466 18.2233C34.2933 19.01 34.6166 19.4017 34.6166 20C34.6166 20.5983 34.2933 20.99 33.6466 21.7767C31.28 24.65 26.06 30 20 30C13.94 30 8.71997 24.65 6.3533 21.7767C5.70663 20.99 5.3833 20.5983 5.3833 20C5.3833 19.4017 5.70663 19.01 6.3533 18.2233C8.71997 15.35 13.94 10 20 10C26.06 10 31.28 15.35 33.6466 18.2233Z" stroke="white" stroke-width="2.54167"/>
</svg>
