<svg width="61" height="61" viewBox="0 0 61 61" fill="none" xmlns="http://www.w3.org/2000/svg">
<path d="M40.6662 22.8748H46.5893C47.1987 22.8662 47.7908 23.0772 48.2574 23.4692C48.724 23.8612 49.0339 24.408 49.1306 25.0098L53.3749 50.426C53.4347 50.7922 53.4134 51.1671 53.3128 51.5242C53.2121 51.8814 53.0344 52.2121 52.7921 52.4932C52.5499 52.7742 52.249 52.9988 51.9107 53.1511C51.5723 53.3035 51.2047 53.3798 50.8337 53.3748H10.1662C9.79517 53.3798 9.42756 53.3035 9.0892 53.1511C8.75085 52.9988 8.44998 52.7742 8.20774 52.4932C7.96551 52.2121 7.78779 51.8814 7.68711 51.5242C7.58642 51.1671 7.56519 50.7922 7.62493 50.426L11.8705 25.0098C11.9671 24.4083 12.2769 23.8616 12.7433 23.4696C13.2096 23.0776 13.8014 22.8665 14.4106 22.8748H20.3337" stroke="black" stroke-width="2.44" stroke-linecap="round" stroke-linejoin="round"/>
<path d="M40.6663 17.7913C40.6663 15.095 39.5952 12.5092 37.6886 10.6026C35.7821 8.69609 33.1963 7.625 30.5 7.625C27.8037 7.625 25.2179 8.69609 23.3114 10.6026C21.4048 12.5092 20.3337 15.095 20.3337 17.7913C20.3337 27.9587 30.5 38.125 30.5 38.125C30.5 38.125 40.6663 27.9587 40.6663 17.7913Z" stroke="black" stroke-width="2.44" stroke-linecap="round" stroke-linejoin="round"/>
</svg>
