<svg width="61" height="61" viewBox="0 0 61 61" fill="none" xmlns="http://www.w3.org/2000/svg">
<path d="M43.2083 27.4627C43.2083 26.5832 43.2083 26.1435 43.3405 25.7521C43.7242 24.6135 44.7384 24.1737 45.755 23.7112C46.8937 23.1901 47.463 22.9309 48.0298 22.8851C48.6703 22.8343 49.3134 22.9715 49.8624 23.2791C50.5893 23.6857 51.0976 24.4635 51.6161 25.0938C54.0129 28.0066 55.2126 29.463 55.6497 31.0667C56.0056 32.363 56.0056 33.7202 55.6497 35.014C55.0118 37.3574 52.9912 39.3195 51.4941 41.1394C50.7291 42.0671 50.3453 42.5322 49.8624 42.8042C49.3039 43.1138 48.6662 43.251 48.0298 43.1981C47.463 43.1524 46.8937 42.8931 45.7525 42.3721C44.7358 41.9095 43.7242 41.4698 43.3405 40.3311C43.2083 39.9397 43.2083 39.5 43.2083 38.6206V27.4627ZM17.7916 27.4627C17.7916 26.3545 17.7611 25.3607 16.8664 24.583C16.5411 24.3008 16.109 24.1051 15.2474 23.7112C14.1062 23.1927 13.5369 22.9309 12.9701 22.8851C11.2748 22.7479 10.3623 23.9069 9.38632 25.0964C6.98699 28.0066 5.78732 29.463 5.34762 31.0693C4.99383 32.3612 4.99383 33.7245 5.34762 35.0165C5.98812 37.3574 8.01128 39.3221 9.50578 41.1394C10.4487 42.2831 11.351 43.3277 12.9701 43.1981C13.5369 43.1524 14.1062 42.8931 15.2474 42.3721C16.1116 41.9807 16.5411 41.7824 16.8664 41.5003C17.7611 40.7225 17.7916 39.7287 17.7916 38.6231V27.4627Z" stroke="black" stroke-width="2.5"/>
<path d="M12.7083 22.875C12.7083 14.4519 20.6738 7.625 30.4999 7.625C40.326 7.625 48.2916 14.4519 48.2916 22.875" stroke="black" stroke-width="2.5" stroke-linecap="square" stroke-linejoin="round"/>
<path d="M48.2915 43.2085V45.2418C48.2915 49.733 43.7419 53.3752 38.1248 53.3752H33.0415" stroke="black" stroke-width="2.5" stroke-linecap="round" stroke-linejoin="round"/>
</svg>
